# xmcd
#
# Track frame offsets: 
#        150
#        14182
#        26658
#        40656
#        54782
#        67177
#        81140
#        96236
#        110807
#        123376
#        136650
#        151078
#        163588
#        176509
#        190404
#        204278
#        220367
#        237080
#        253010
#        265974
#        279294
#        293346
#        307126
#
# Disc length: 4270 seconds
#
# Revision: 0
# Processed by: cddbd v1.5.2PL0 Copyright (c) Steve Scherf et al.
# Submitted via: ExactAudioCopy v1.0b1
#
DISCID=4710ac17
DTITLE=Leroy Carr - How long blues (his 23 best songs)
DYEAR=1935
DGENRE=Blues
TTITLE0=How long how long blues
TTITLE1=How long blues no 2
TTITLE2=Prison bound blues
TTITLE3=Gambler's blues
TTITLE4=Naptown blues
TTITLE5=The new how long blues
TTITLE6=Rainy day blues
TTITLE7=I'm goin back ti Tennessee
TTITLE8=Goodbye blues
TTITLE9=Sloppy drunk blues
TTITLE10=Long road blues
TTITLE11=Low down dog blues
TTITLE12=How long has that evening train been gone
TTITLE13=Midnight hour blues
TTITLE14=Mean mistreater mama
TTITLE15=Hurry down sunshine
TTITLE16=Shady lane blues
TTITLE17=Blues before sunrise
TTITLE18=Barrel house woman
TTITLE19=I believe I'll make a change
TTITLE20=Hart hearted papa
TTITLE21=Arlena
TTITLE22=When the sun goes down
EXTD=
EXTT0=
EXTT1=
EXTT2=
EXTT3=
EXTT4=
EXTT5=
EXTT6=
EXTT7=
EXTT8=
EXTT9=
EXTT10=
EXTT11=
EXTT12=
EXTT13=
EXTT14=
EXTT15=
EXTT16=
EXTT17=
EXTT18=
EXTT19=
EXTT20=
EXTT21=
EXTT22=
PLAYORDER=
